<?xml version="1.0" encoding="UTF-8" standalone="no"?>
<svg
   xmlns:dc="http://purl.org/dc/elements/1.1/"
   xmlns:cc="http://creativecommons.org/ns#"
   xmlns:rdf="http://www.w3.org/1999/02/22-rdf-syntax-ns#"
   xmlns:svg="http://www.w3.org/2000/svg"
   xmlns="http://www.w3.org/2000/svg"
   xmlns:sodipodi="http://sodipodi.sourceforge.net/DTD/sodipodi-0.dtd"
   xmlns:inkscape="http://www.inkscape.org/namespaces/inkscape"
   version="1.1"
   id="svg2"
   xml:space="preserve"
   width="793.70135"
   height="1122.52"
   viewBox="0 0 793.70135 1122.52"
   sodipodi:docname="의라차차로고.ai"><metadata
     id="metadata8"><rdf:RDF><cc:Work
         rdf:about=""><dc:format>image/svg+xml</dc:format><dc:type
           rdf:resource="http://purl.org/dc/dcmitype/StillImage" /></cc:Work></rdf:RDF></metadata><defs
     id="defs6"><clipPath
       clipPathUnits="userSpaceOnUse"
       id="clipPath18"><path
         d="M 0,841.89 H 595.276 V 0 H 0 Z"
         id="path16" /></clipPath></defs><sodipodi:namedview
     pagecolor="#ffffff"
     bordercolor="#666666"
     borderopacity="1"
     objecttolerance="10"
     gridtolerance="10"
     guidetolerance="10"
     inkscape:pageopacity="0"
     inkscape:pageshadow="2"
     inkscape:window-width="640"
     inkscape:window-height="480"
     id="namedview4" /><g
     id="g10"
     inkscape:groupmode="layer"
     inkscape:label="의라차차로고"
     transform="matrix(1.3333333,0,0,-1.3333333,0,1122.52)"><g
       id="g12"><g
         id="g14"
         clip-path="url(#clipPath18)"><g
           id="g20"
           transform="translate(149.729,687.5331)"><path
             d="m 0,0 c -2.538,1.31 -4.531,3.138 -5.977,5.485 -1.446,2.347 -2.169,5.021 -2.169,8.023 0,3.001 0.723,5.676 2.169,8.024 1.446,2.346 3.439,4.175 5.977,5.485 2.538,1.31 5.416,1.965 8.637,1.965 H 23.783 V 22.923 H 8.637 c -2.947,0 -5.363,-0.887 -7.245,-2.66 -1.883,-1.775 -2.825,-4.026 -2.825,-6.755 0,-2.729 0.942,-4.981 2.825,-6.754 C 3.274,4.98 5.69,4.093 8.637,4.093 c 2.947,0 5.363,0.887 7.245,2.661 1.884,1.773 2.825,4.025 2.825,6.754 0,1.802 -0.437,3.466 -1.31,4.994 h 6.631 C 24.956,16.974 25.42,15.31 25.42,13.508 25.42,10.506 24.71,7.832 23.292,5.485 21.872,3.138 19.88,1.31 17.315,0 14.749,-1.31 11.857,-1.965 8.637,-1.965 5.416,-1.965 2.538,-1.31 0,0 m -18.708,-15.392 v 6.059 h 51.169 c 2.129,0 3.697,0.45 4.707,1.351 1.01,0.9 1.515,2.251 1.515,4.052 v 39.789 h 6.713 V 2.047 c 0,-3.385 0.519,-5.923 1.556,-7.614 1.036,-1.693 2.673,-2.948 4.912,-3.766 v -6.059 c -1.747,0.109 -3.452,0.559 -5.117,1.351 -1.665,0.791 -2.961,1.788 -3.889,2.989 -0.71,-1.365 -1.829,-2.429 -3.356,-3.193 -1.529,-0.765 -3.439,-1.147 -5.731,-1.147 z"
             style="fill:#434c9b;fill-opacity:1;fill-rule:nonzero;stroke:none"
             id="path22" /></g><g
           id="g24"
           transform="translate(254.7256,723.392)"><path
             d="m 0,0 h 6.713 v -18.421 h 11.462 v -6.058 H 6.713 v -9.333 c 0,-3.766 0.641,-6.605 1.924,-8.515 1.282,-1.911 3.48,-2.865 6.591,-2.865 h 2.046 v -6.058 h -2.128 c -4.967,0 -8.733,1.445 -11.298,4.339 C 1.282,-44.019 0,-39.735 0,-34.058 Z m -9.906,-45.192 v -6.058 h -43.391 v 6.058 h 10.97 c -0.873,1.146 -1.31,2.865 -1.31,5.158 v 11.707 h 22.76 v 9.825 h -22.76 v 6.058 h 25.789 c 1.2,0 2.115,-0.315 2.743,-0.942 0.626,-0.628 0.941,-1.542 0.941,-2.742 v -18.175 h -22.759 v -5.977 c 0,-1.747 0.34,-3.002 1.023,-3.766 0.682,-0.765 1.76,-1.146 3.234,-1.146 z"
             style="fill:#434c9b;fill-opacity:1;fill-rule:nonzero;stroke:none"
             id="path26" /></g><g
           id="g28"
           transform="translate(330.126,723.392)"><path
             d="m 0,0 h 6.714 v -18.421 h 11.461 v -6.058 H 6.714 v -9.333 c 0,-3.766 0.64,-6.605 1.924,-8.515 1.281,-1.911 3.479,-2.865 6.59,-2.865 h 2.046 v -6.058 h -2.128 c -4.967,0 -8.733,1.445 -11.298,4.339 C 1.282,-44.019 0,-39.735 0,-34.058 Z m -58.291,-51.25 v 6.058 h 6.386 c 6.167,0 10.956,1.351 14.368,4.052 3.411,2.702 5.117,6.509 5.117,11.421 v 2.211 h -17.029 v 6.058 h 17.029 v 10.643 h 6.959 V -21.45 h 16.537 v -6.058 h -16.537 v -2.211 c 0,-4.695 1.597,-8.379 4.789,-11.052 3.193,-2.675 7.655,-4.094 13.386,-4.257 v -5.895 c -4.859,0.054 -9.169,0.942 -12.936,2.661 -3.765,1.719 -6.659,4.134 -8.677,7.245 -1.913,-3.221 -4.818,-5.731 -8.72,-7.532 -3.902,-1.801 -8.391,-2.701 -13.467,-2.701 z"
             style="fill:#434c9b;fill-opacity:1;fill-rule:nonzero;stroke:none"
             id="path30" /></g><g
           id="g32"
           transform="translate(405.4453,723.392)"><path
             d="m 0,0 h 6.714 v -18.421 h 11.461 v -6.058 H 6.714 v -9.333 c 0,-3.766 0.64,-6.605 1.924,-8.515 1.281,-1.911 3.479,-2.865 6.59,-2.865 h 2.046 v -6.058 h -2.128 c -4.967,0 -8.733,1.445 -11.298,4.339 C 1.282,-44.019 0,-39.735 0,-34.058 Z m -58.291,-51.25 v 6.058 h 6.386 c 6.167,0 10.957,1.351 14.368,4.052 3.41,2.702 5.117,6.509 5.117,11.421 v 2.211 h -17.029 v 6.058 h 17.029 v 10.643 h 6.959 V -21.45 h 16.537 v -6.058 h -16.537 v -2.211 c 0,-4.695 1.597,-8.379 4.789,-11.052 3.193,-2.675 7.655,-4.094 13.386,-4.257 v -5.895 c -4.859,0.054 -9.169,0.942 -12.936,2.661 -3.765,1.719 -6.659,4.134 -8.677,7.245 -1.912,-3.221 -4.818,-5.731 -8.72,-7.532 -3.902,-1.801 -8.392,-2.701 -13.467,-2.701 z"
             style="fill:#434c9b;fill-opacity:1;fill-rule:nonzero;stroke:none"
             id="path34" /></g><g
           id="g36"
           transform="translate(431.5615,666.8202)"><path
             d="m 0,0 v 4.093 l 0.654,0.082 c 1.746,0.218 2.62,1.419 2.62,3.602 v 4.667 h 7.615 V 8.596 C 10.889,5.977 10.151,3.957 8.678,2.538 7.204,1.118 4.802,0.299 1.474,0.082 Z"
             style="fill:#434c9b;fill-opacity:1;fill-rule:nonzero;stroke:none"
             id="path38" /></g></g></g></g></svg>
